HIERARCHY
ROOT hip
{
	OFFSET 0.000000 0.000000 0.000000 
	CHANNELS 6 Xposition Yposition Zposition Xrotation Zrotation Yrotation
	JOINT abdomen
	{
		OFFSET 0.000000 3.402643 0.000000 
		CHANNELS 3 Xrotation Zrotation Yrotation
		JOINT chest
		{
			OFFSET 0.000000 8.438565 -0.680529 
			CHANNELS 3 Xrotation Zrotation Yrotation
			JOINT neck
			{
				OFFSET 0.000000 10.207942 -0.272212 
				CHANNELS 3 Xrotation Zrotation Yrotation
				JOINT head
				{
					OFFSET 0.000000 3.130431 0.000000 
					CHANNELS 3 Xrotation Zrotation Yrotation
					End Site
					{
						OFFSET 0.000000 3.130435 0.000000 
					}
				}
			}
			JOINT lCollar
			{
				OFFSET 3.470700 6.669187 -0.816635 
				CHANNELS 3 Yrotation Zrotation Xrotation
				JOINT lShldr
				{
					OFFSET 3.198488 0.000000 0.000000 
					CHANNELS 3 Zrotation Yrotation Xrotation
					JOINT lForeArm
					{
						OFFSET 10.139888 0.000000 0.000000 
						CHANNELS 3 Yrotation Zrotation Xrotation
						JOINT lHand
						{
							OFFSET 8.370511 0.000000 0.000000 
							CHANNELS 3 Zrotation Yrotation Xrotation
							End Site
							{
								OFFSET 4.083176 0.000000 0.000000 
							}
						}
					}
				}
			}
			JOINT rCollar
			{
				OFFSET -3.470700 6.669187 -0.816635 
				CHANNELS 3 Yrotation Zrotation Xrotation
				JOINT rShldr
				{
					OFFSET -3.198488 0.000000 0.000000 
					CHANNELS 3 Zrotation Yrotation Xrotation
					JOINT rForeArm
					{
						OFFSET -10.139888 0.000000 0.000000 
						CHANNELS 3 Yrotation Zrotation Xrotation
						JOINT rHand
						{
							OFFSET -8.370511 0.000000 0.000000 
							CHANNELS 3 Zrotation Yrotation Xrotation
							End Site
							{
								OFFSET -4.083176 0.000000 0.000000 
							}
						}
					}
				}
			}
		}
	}
	JOINT lThigh
	{
		OFFSET 5.308129 -1.633274 1.361059 
		CHANNELS 3 Xrotation Zrotation Yrotation
		JOINT lShin
		{
			OFFSET -2.041588 -20.007561 0.000000 
			CHANNELS 3 Xrotation Zrotation Yrotation
			JOINT lFoot
			{
				OFFSET 0.000000 -19.190928 -1.224953 
				CHANNELS 3 Xrotation Yrotation Zrotation
				End Site
				{
					OFFSET 0.000000 -2.449906 4.627600 
				}
			}
		}
	}
	JOINT rThigh
	{
		OFFSET -5.308129 -1.633274 1.361059 
		CHANNELS 3 Xrotation Zrotation Yrotation
		JOINT rShin
		{
			OFFSET 2.041588 -20.007561 0.000000 
			CHANNELS 3 Xrotation Zrotation Yrotation
			JOINT rFoot
			{
				OFFSET 0.000000 -19.190928 -1.224953 
				CHANNELS 3 Xrotation Yrotation Zrotation
				End Site
				{
					OFFSET 0.000000 -2.449906 4.627600 
				}
			}
		}
	}
}
MOTION
Frames: 10
Frame Time: 0.033333
-0.036898 46.686588 0.109220 0.889032 -1.630663 87.992012 0.000000 0.000000 0.000000 -0.892735 5.468090 7.718044 30.138046 -14.427764 -1.209008 -24.510220 6.267949 8.154325 3.159999 -8.599578 24.899090 -72.078690 10.290198 -12.728140 -49.184109 -4.181920 76.241516 -20.336184 -15.402816 -73.787003 7.486352 -18.330017 25.000000 75.596558 5.818587 74.927322 30.110865 -44.103363 29.687967 33.024139 11.619046 -75.737083 19.346115 2.853154 17.304630 6.803256 0.478885 0.483287 -0.647696 -2.842776 -4.758594 15.074350 -4.804177 -0.519835 4.928132 -3.591598 -1.251400 7.683683 8.417617 16.530569 
-0.121762 46.635681 0.184976 1.623314 -2.996846 89.309242 0.000000 0.000000 0.000000 -1.992965 5.894895 7.842189 30.228836 -14.288997 -1.190570 -24.143509 4.990826 7.354449 1.632536 -9.127398 24.738209 -72.043877 10.545801 -12.790837 -49.576519 -4.348157 76.799957 -20.753136 -15.152969 -73.741646 6.189403 -19.445621 25.000000 75.366356 5.181191 74.934319 31.842266 -44.044464 30.561142 33.246910 11.915648 -75.659973 17.163666 2.129569 17.252941 7.313463 1.192860 0.586594 -0.576334 -4.309075 -4.650978 13.768873 -5.673626 -0.790356 4.995035 -3.044274 -1.129220 7.516025 7.127605 16.538563 
-0.189584 46.580669 0.367316 1.625598 -4.265867 90.103271 0.000000 0.000000 0.000000 -2.999986 6.855916 8.079290 30.100725 -14.450683 -1.207973 -23.773159 4.068770 6.672411 0.849644 -9.305922 24.639975 -72.051102 10.682281 -12.803140 -49.786865 -4.637748 77.249207 -20.976151 -15.316696 -73.629448 5.012697 -20.640949 25.000000 75.848633 4.879471 75.315720 32.712315 -44.324398 31.706675 33.216320 12.559776 -75.507339 15.281973 2.431930 17.487417 7.883625 1.396944 0.600786 -0.556798 -5.322474 -4.674203 12.487172 -5.477899 -0.695901 5.028044 -2.987847 -1.107607 7.453930 6.267962 16.439396 
-0.221493 46.521671 0.664441 0.774751 -5.263194 90.260361 0.000000 0.000000 0.000000 -3.753341 8.614574 8.519543 29.897268 -14.843312 -1.233320 -23.412294 3.645248 6.210123 0.813846 -9.400323 24.634819 -72.210320 10.577335 -12.686262 -49.579521 -4.345723 76.858421 -21.027290 -16.119627 -73.287071 4.060989 -21.918085 25.000000 76.597061 4.895951 75.785568 33.165997 -44.324188 32.258270 33.246635 13.116976 -75.389053 13.998218 3.955351 18.117363 8.451729 0.987423 0.465329 -0.592789 -5.763923 -4.804135 11.541120 -3.994266 -0.255100 4.748066 -3.422549 -1.229305 7.645838 6.005396 16.290749 
-0.267400 46.466000 0.860705 0.815828 -6.522781 91.107979 0.000000 0.000000 0.000000 -5.014121 9.077043 8.641267 29.889458 -14.282453 -1.192324 -23.116470 2.733766 6.104434 -0.203874 -9.478145 24.507065 -72.359062 11.186187 -12.667608 -49.886738 -4.255234 76.743271 -20.739674 -16.911385 -73.112404 2.579836 -22.648352 25.000000 77.007324 4.482876 76.151428 33.524998 -44.499645 33.085281 33.333549 14.446652 -75.140640 12.089449 4.219235 18.314213 9.091655 1.142908 0.455804 -0.635041 -6.822447 -4.777356 10.406411 -3.876034 -0.180514 4.597668 -3.397196 -1.239438 7.709519 5.128245 16.367094 
-0.310022 46.421673 1.002873 0.630238 -7.392135 91.558952 0.000000 0.000000 0.000000 -5.924069 9.656171 8.789048 30.048693 -13.722807 -1.144362 -22.997461 2.312756 5.199272 -0.681007 -9.448628 24.450590 -72.712814 11.453407 -12.481000 -50.085716 -3.982927 77.038689 -21.009275 -17.457710 -72.761902 1.630905 -23.060675 25.000000 76.577187 4.135229 75.968346 35.120365 -44.292969 34.721600 33.368973 15.296934 -74.965843 10.796874 4.540853 18.488478 9.460155 1.337490 0.467783 -0.638311 -7.430643 -4.834581 9.483713 -3.541798 -0.078316 4.642431 -3.434557 -1.230367 7.700264 4.683877 16.499203 
-0.328590 46.390175 1.137287 0.453653 -8.017330 91.810989 0.000000 0.000000 0.000000 -6.540104 10.237110 8.941414 30.128040 -13.229752 -1.113646 -22.861233 1.907766 5.259015 -1.022155 -9.172793 24.421675 -73.199219 11.479944 -12.185918 -49.552467 -3.794982 75.815048 -20.727617 -17.243216 -72.968826 0.831032 -23.460119 24.671619 76.796165 3.846704 76.176849 35.205544 -44.504642 35.080055 33.295109 16.125959 -74.816956 9.957412 4.862792 18.636957 9.650641 1.455311 0.480431 -0.619010 -7.831313 -4.998280 8.832816 -3.142851 0.059750 4.675004 -3.621157 -1.283132 7.763266 4.450305 16.728451 
-0.324542 46.369804 1.255674 0.256652 -8.388589 91.914665 0.000000 0.000000 0.000000 -6.955351 10.606762 9.026548 30.255976 -12.634352 -1.071439 -22.835497 1.574894 5.023843 -1.471286 -9.052495 24.367970 -73.477890 11.613730 -12.026667 -49.469978 -3.627400 75.385559 -20.540981 -17.706034 -72.840752 0.307579 -23.581751 24.449692 76.961182 3.662174 76.335266 34.671547 -44.351357 34.061806 32.747658 16.634758 -74.767464 9.564502 5.213879 18.778624 9.631537 1.453741 0.490570 -0.542180 -8.035205 -5.132886 8.542216 -2.734075 0.192084 4.494563 -3.753926 -1.326629 7.923639 4.360212 16.848671 
-0.339091 46.352749 1.296678 0.355721 -8.769364 92.132416 0.000000 0.000000 0.000000 -7.353592 10.636484 9.035855 30.315115 -12.329589 -1.043056 -22.814203 1.466883 4.514359 -1.957175 -9.182587 24.313555 -73.371262 11.794538 -12.115718 -49.650906 -3.917595 75.432983 -20.662395 -17.934828 -72.677963 0.006635 -23.765354 24.308289 77.431038 3.418355 76.696663 33.501289 -44.320595 32.164566 32.866295 16.695313 -74.816589 9.018986 5.067286 18.744318 9.708621 1.660249 0.531767 -0.531671 -8.273608 -5.224029 8.136272 -2.877640 0.123161 4.547155 -3.641156 -1.284484 8.007442 4.173155 17.070013 
-0.309123 46.355453 1.347487 0.286471 -8.662004 91.928535 0.000000 0.000000 0.000000 -7.226541 10.726675 9.060009 30.290010 -12.294420 -1.041362 -22.785295 1.492350 4.460794 -2.020902 -9.318082 24.300581 -73.189430 12.017851 -12.262423 -50.064087 -4.131068 75.712616 -20.916014 -17.552362 -72.751961 0.006611 -23.667696 24.318039 77.373260 3.405157 76.668770 33.348915 -43.995869 31.064653 33.395927 16.059177 -74.955521 9.295065 5.254254 18.798485 9.603613 1.512677 0.514675 -0.521512 -8.117204 -5.277739 8.346381 -2.704145 0.196480 4.388400 -3.667048 -1.315550 7.971187 4.322288 16.812996 
